<?xml version="1.0" encoding="utf-8"?><svg width="2000" height="6069" viewBox="0 0 2000 6069" xmlns="http://www.w3.org/2000/svg" xmlns:xlink="http://www.w3.org/1999/xlink"><svg width="59" height="57" viewBox="0 0 59 57" id="close" xmlns="http://www.w3.org/2000/svg"><style>.ashp0{fill:none;stroke:#c8bfb5;stroke-width:2}</style><path class="ashp0" d="M2.95 1.02l54.5 54.51M55.98 1.02L1.47 55.53"/></svg><svg width="12" height="12" viewBox="0 0 12 12" id="phone" y="57" xmlns="http://www.w3.org/2000/svg"><style>.bshp0,.bshp1{fill:#86ae63}.bshp1{stroke:#fff;stroke-linecap:round;stroke-width:.686}</style><path class="bshp0" d="M12 9.51c0-.16-.12-.42-.2-.49-.4-.37-1.15-.53-1.95-.98-.8-.45-.87-.31-1.01-.24S8.09 8.84 7.8 9.15c-.19.2-.45.17-.55.14-2.3-.76-4.13-3.71-4.13-3.71-.21-.21 0-.45 0-.45.41-.42.59-.62.82-.93.42-.58-.8-2.7-.96-3.16C2.82.59 1.92.75 1.92.75.18 1.02-.25 3.38.14 4.29c2.34 5.61 7.88 9.32 10.98 7.04 0 0 .89-.49.89-1.81z"/><path class="bshp1" d="M11.12.68L6.94 4.93M6.84.99v4.05h3.97"/></svg><svg width="2000" height="2000" viewBox="126.445 2.281 589 589" id="sb_facebook" y="69" xmlns="http://www.w3.org/2000/svg"><circle cx="420.945" cy="296.781" r="294.5" fill="#3c5a9a"/><path d="M516.704 92.677h-65.239c-38.715 0-81.777 16.283-81.777 72.402.189 19.554 0 38.281 0 59.357H324.9v71.271h46.174v205.177h84.847V294.353h56.002l5.067-70.117h-62.531s.14-31.191 0-40.249c0-22.177 23.076-20.907 24.464-20.907 10.981 0 32.332.032 37.813 0V92.677h-.032z" fill="#fff"/></svg><svg id="sb_instagram" version="1.1" viewBox="0 0 1000 1000" xml:space="preserve" width="1000" height="1000" y="2069" xmlns="http://www.w3.org/2000/svg"><style>.dst0{fill:url(#dSVGID_1_)}.dst1{fill:#fff}</style><linearGradient gradientUnits="userSpaceOnUse" id="dSVGID_1_" x1="0" x2="1000" y1="1000" y2="0"><stop offset="0" stop-color="#ffd521"/><stop offset=".055" stop-color="#ffd020"/><stop offset=".124" stop-color="#fec01e"/><stop offset=".2" stop-color="#fca71b"/><stop offset=".282" stop-color="#fa8316"/><stop offset=".368" stop-color="#f85510"/><stop offset=".456" stop-color="#f51e09"/><stop offset=".5" stop-color="#f30005"/><stop offset=".503" stop-color="#f20007"/><stop offset=".597" stop-color="#e1003b"/><stop offset=".688" stop-color="#d30067"/><stop offset=".776" stop-color="#c70088"/><stop offset=".859" stop-color="#bf00a0"/><stop offset=".936" stop-color="#bb00af"/><stop offset="1" stop-color="#b900b4"/></linearGradient><path class="dst0" d="M0 0h1000v1000H0z"/><path class="dst1" d="M500 220.2c91.1 0 101.9.3 137.9 2 33.3 1.5 51.4 7.1 63.4 11.8 15.9 6.2 27.3 13.6 39.2 25.5 11.9 11.9 19.3 23.3 25.5 39.2 4.7 12 10.2 30.1 11.8 63.4 1.6 36 2 46.8 2 137.9s-.3 101.9-2 137.9c-1.5 33.3-7.1 51.4-11.8 63.4-6.2 15.9-13.6 27.3-25.5 39.2-11.9 11.9-23.3 19.3-39.2 25.5-12 4.7-30.1 10.2-63.4 11.8-36 1.6-46.8 2-137.9 2s-101.9-.3-137.9-2c-33.3-1.5-51.4-7.1-63.4-11.8-15.9-6.2-27.3-13.6-39.2-25.5-11.9-11.9-19.3-23.3-25.5-39.2-4.7-12-10.2-30.1-11.8-63.4-1.6-36-2-46.8-2-137.9s.3-101.9 2-137.9c1.5-33.3 7.1-51.4 11.8-63.4 6.2-15.9 13.6-27.3 25.5-39.2 11.9-11.9 23.3-19.3 39.2-25.5 12-4.7 30.1-10.2 63.4-11.8 36-1.7 46.8-2 137.9-2m0-61.5c-92.7 0-104.3.4-140.7 2.1-36.3 1.7-61.1 7.4-82.9 15.9C254 185.3 234.9 197 216 216c-19 19-30.6 38-39.4 60.5-8.4 21.7-14.2 46.5-15.9 82.9-1.7 36.4-2.1 48-2.1 140.7 0 92.7.4 104.3 2.1 140.7 1.7 36.3 7.4 61.1 15.9 82.9C185.3 746 197 765.1 216 784c19 19 38 30.6 60.5 39.4 21.7 8.4 46.5 14.2 82.9 15.9 36.4 1.7 48 2.1 140.7 2.1s104.3-.4 140.7-2.1c36.3-1.7 61.1-7.4 82.9-15.9C746 814.7 765.1 803 784 784c19-19 30.6-38 39.4-60.5 8.4-21.7 14.2-46.5 15.9-82.9 1.7-36.4 2.1-48 2.1-140.7s-.4-104.3-2.1-140.7c-1.7-36.3-7.4-61.1-15.9-82.9C814.7 254 803 234.9 784 216c-19-19-38-30.6-60.5-39.4-21.7-8.4-46.5-14.2-82.9-15.9-36.3-1.6-47.9-2-140.6-2z"/><path class="dst1" d="M500 324.7c-96.8 0-175.3 78.5-175.3 175.3S403.2 675.3 500 675.3 675.3 596.8 675.3 500 596.8 324.7 500 324.7zm0 289.1c-62.8 0-113.8-50.9-113.8-113.8s51-113.8 113.8-113.8S613.8 437.1 613.8 500s-51 113.8-113.8 113.8z"/><circle class="dst1" cx="682.2" cy="317.8" r="41"/></svg><svg data-name="Layer 1" id="sb_vk" viewBox="0 0 1000 1000" width="1000" height="1000" y="3069" xmlns="http://www.w3.org/2000/svg"><defs><style>.ecls-1{fill:#5181b8}.ecls-2{fill:#fff;fill-rule:evenodd}</style></defs><path class="ecls-1" d="M0 0h1000v1000H0z"/><path class="ecls-2" d="M819 344.51c4.64-15.45 0-26.8-22-26.8h-73c-18.54 0-27.09 9.81-31.73 20.62 0 0-37.08 90.38-89.61 149.09-17 17-24.72 22.4-34 22.4-4.63 0-11.34-5.4-11.34-20.85V344.51c0-18.54-5.38-26.8-20.83-26.8H422c-11.58 0-18.55 8.6-18.55 16.76 0 17.57 26.26 21.63 29 71.07v107.38c0 23.54-4.25 27.81-13.52 27.81-24.72 0-84.85-90.79-120.51-194.67-7-20.2-14-28.35-32.64-28.35h-72.99c-20.84 0-25 9.81-25 20.62 0 19.31 24.72 115.1 115.1 241.79 60.25 86.52 145.11 133.42 222.4 133.42 46.35 0 52.08-10.42 52.08-28.36v-65.39c0-20.83 4.39-25 19.07-25 10.81 0 29.35 5.41 72.61 47.12 49.44 49.44 57.59 71.62 85.4 71.62h72.92c20.83 0 31.25-10.42 25.24-31-6.58-20.49-30.18-50.22-61.5-85.45-17-20.09-42.49-41.72-50.22-52.53-10.81-13.91-7.72-20.09 0-32.45 0 .04 88.84-125.1 98.11-167.59z" id="eLogo"/></svg><svg width="983.04" height="2000" viewBox="0 0 2000 4069" id="sprite-d0729008" y="4069" xmlns="http://www.w3.org/2000/svg"><svg width="59" height="57" id="fclose"><style>.fashp0{fill:none;stroke:#c8bfb5;stroke-width:2}</style><path class="fashp0" d="M2.95 1.02l54.5 54.51M55.98 1.02L1.47 55.53"/></svg><svg width="12" height="12" id="fphone" y="57"><style>.fbshp0,.fbshp1{fill:#86ae63}.fbshp1{stroke:#fff;stroke-linecap:round;stroke-width:.686}</style><path class="fbshp0" d="M12 9.51c0-.16-.12-.42-.2-.49-.4-.37-1.15-.53-1.95-.98-.8-.45-.87-.31-1.01-.24S8.09 8.84 7.8 9.15c-.19.2-.45.17-.55.14-2.3-.76-4.13-3.71-4.13-3.71-.21-.21 0-.45 0-.45.41-.42.59-.62.82-.93.42-.58-.8-2.7-.96-3.16C2.82.59 1.92.75 1.92.75.18 1.02-.25 3.38.14 4.29c2.34 5.61 7.88 9.32 10.98 7.04 0 0 .89-.49.89-1.81z"/><path class="fbshp1" d="M11.12.68L6.94 4.93M6.84.99v4.05h3.97"/></svg><svg width="2000" height="2000" viewBox="126.445 2.281 589 589" id="fsb_facebook" y="69"><circle cx="420.945" cy="296.781" r="294.5" fill="#3c5a9a"/><path d="M516.704 92.677h-65.239c-38.715 0-81.777 16.283-81.777 72.402.189 19.554 0 38.281 0 59.357H324.9v71.271h46.174v205.177h84.847V294.353h56.002l5.067-70.117h-62.531s.14-31.191 0-40.249c0-22.177 23.076-20.907 24.464-20.907 10.981 0 32.332.032 37.813 0V92.677h-.032z" fill="#fff"/></svg><svg id="fsb_instagram" version="1.1" xml:space="preserve" width="1000" height="1000" y="2069"><style>.fdst0{fill:url(#fdSVGID_1_)}.fdst1{fill:#fff}</style><linearGradient gradientUnits="userSpaceOnUse" id="fdSVGID_1_" x1="0" x2="1000" y1="1000" y2="0"><stop offset="0" stop-color="#ffd521"/><stop offset=".055" stop-color="#ffd020"/><stop offset=".124" stop-color="#fec01e"/><stop offset=".2" stop-color="#fca71b"/><stop offset=".282" stop-color="#fa8316"/><stop offset=".368" stop-color="#f85510"/><stop offset=".456" stop-color="#f51e09"/><stop offset=".5" stop-color="#f30005"/><stop offset=".503" stop-color="#f20007"/><stop offset=".597" stop-color="#e1003b"/><stop offset=".688" stop-color="#d30067"/><stop offset=".776" stop-color="#c70088"/><stop offset=".859" stop-color="#bf00a0"/><stop offset=".936" stop-color="#bb00af"/><stop offset="1" stop-color="#b900b4"/></linearGradient><path class="fdst0" d="M0 0h1000v1000H0z"/><path class="fdst1" d="M500 220.2c91.1 0 101.9.3 137.9 2 33.3 1.5 51.4 7.1 63.4 11.8 15.9 6.2 27.3 13.6 39.2 25.5 11.9 11.9 19.3 23.3 25.5 39.2 4.7 12 10.2 30.1 11.8 63.4 1.6 36 2 46.8 2 137.9s-.3 101.9-2 137.9c-1.5 33.3-7.1 51.4-11.8 63.4-6.2 15.9-13.6 27.3-25.5 39.2-11.9 11.9-23.3 19.3-39.2 25.5-12 4.7-30.1 10.2-63.4 11.8-36 1.6-46.8 2-137.9 2s-101.9-.3-137.9-2c-33.3-1.5-51.4-7.1-63.4-11.8-15.9-6.2-27.3-13.6-39.2-25.5-11.9-11.9-19.3-23.3-25.5-39.2-4.7-12-10.2-30.1-11.8-63.4-1.6-36-2-46.8-2-137.9s.3-101.9 2-137.9c1.5-33.3 7.1-51.4 11.8-63.4 6.2-15.9 13.6-27.3 25.5-39.2 11.9-11.9 23.3-19.3 39.2-25.5 12-4.7 30.1-10.2 63.4-11.8 36-1.7 46.8-2 137.9-2m0-61.5c-92.7 0-104.3.4-140.7 2.1-36.3 1.7-61.1 7.4-82.9 15.9C254 185.3 234.9 197 216 216c-19 19-30.6 38-39.4 60.5-8.4 21.7-14.2 46.5-15.9 82.9-1.7 36.4-2.1 48-2.1 140.7 0 92.7.4 104.3 2.1 140.7 1.7 36.3 7.4 61.1 15.9 82.9C185.3 746 197 765.1 216 784c19 19 38 30.6 60.5 39.4 21.7 8.4 46.5 14.2 82.9 15.9 36.4 1.7 48 2.1 140.7 2.1s104.3-.4 140.7-2.1c36.3-1.7 61.1-7.4 82.9-15.9C746 814.7 765.1 803 784 784c19-19 30.6-38 39.4-60.5 8.4-21.7 14.2-46.5 15.9-82.9 1.7-36.4 2.1-48 2.1-140.7s-.4-104.3-2.1-140.7c-1.7-36.3-7.4-61.1-15.9-82.9C814.7 254 803 234.9 784 216c-19-19-38-30.6-60.5-39.4-21.7-8.4-46.5-14.2-82.9-15.9-36.3-1.6-47.9-2-140.6-2z"/><path class="fdst1" d="M500 324.7c-96.8 0-175.3 78.5-175.3 175.3S403.2 675.3 500 675.3 675.3 596.8 675.3 500 596.8 324.7 500 324.7zm0 289.1c-62.8 0-113.8-50.9-113.8-113.8s51-113.8 113.8-113.8S613.8 437.1 613.8 500s-51 113.8-113.8 113.8z"/><circle class="fdst1" cx="682.2" cy="317.8" r="41"/></svg><svg data-name="Layer 1" id="fsb_vk" width="1000" height="1000" y="3069"><defs><style>.fecls-1{fill:#5181b8}.fecls-2{fill:#fff;fill-rule:evenodd}</style></defs><path class="fecls-1" d="M0 0h1000v1000H0z"/><path class="fecls-2" d="M819 344.51c4.64-15.45 0-26.8-22-26.8h-73c-18.54 0-27.09 9.81-31.73 20.62 0 0-37.08 90.38-89.61 149.09-17 17-24.72 22.4-34 22.4-4.63 0-11.34-5.4-11.34-20.85V344.51c0-18.54-5.38-26.8-20.83-26.8H422c-11.58 0-18.55 8.6-18.55 16.76 0 17.57 26.26 21.63 29 71.07v107.38c0 23.54-4.25 27.81-13.52 27.81-24.72 0-84.85-90.79-120.51-194.67-7-20.2-14-28.35-32.64-28.35h-72.99c-20.84 0-25 9.81-25 20.62 0 19.31 24.72 115.1 115.1 241.79 60.25 86.52 145.11 133.42 222.4 133.42 46.35 0 52.08-10.42 52.08-28.36v-65.39c0-20.83 4.39-25 19.07-25 10.81 0 29.35 5.41 72.61 47.12 49.44 49.44 57.59 71.62 85.4 71.62h72.92c20.83 0 31.25-10.42 25.24-31-6.58-20.49-30.18-50.22-61.5-85.45-17-20.09-42.49-41.72-50.22-52.53-10.81-13.91-7.72-20.09 0-32.45 0 .04 88.84-125.1 98.11-167.59z" id="feLogo"/></svg></svg></svg>